<svg width="939" height="360" viewBox="-60 -60 939 360" fill="none" xmlns="http://www.w3.org/2000/svg">

<g clip-path="url(#clip0_146_3266)">
<path fill-rule="evenodd" clip-rule="evenodd" d="M107.696 0.520618C100.164 1.79323 98.8387 2.50007 59.1401 26.4103C44.6711 35.125 30.1945 43.8236 26.97 45.7402C5.30027 58.6219 0.172585 64.5555 0.155147 76.7702C0.136507 89.6135 3.8956 93.4655 34.8 112.272C114.409 160.717 110.799 159.747 142.917 141.321C159.011 132.088 206.918 102.78 213.128 98.3681C225.451 89.6126 229.245 77.1233 223.124 65.4592C219.301 58.1752 217.773 57.0711 180.455 34.6274C165.738 25.7765 151.532 17.2187 148.886 15.6101C125.1 1.14953 118.431 -1.2933 107.696 0.520618ZM116.735 8.97219C121.094 9.75031 125.29 11.5996 132.801 16.053C154.599 28.9782 203.632 58.6044 207.213 61.0137C219.609 69.3538 220.717 81.6842 209.831 90.1449C206.833 92.4753 207.511 92.5928 202.627 88.8952C170.206 64.3485 138.975 41.0416 137.88 40.5752C134.799 39.2636 134.64 39.3902 124.735 51.072C120.499 56.0685 115.434 62.0241 113.48 64.3072L109.927 68.4576L107.749 65.8175C106.551 64.3652 102.474 59.3031 98.6884 54.5682C89.5974 43.1968 89.8346 43.4738 88.7264 42.9452C87.4054 42.3154 85.639 42.3704 84.4854 43.0769C83.1601 43.8889 66.5062 56.3513 28.6898 84.8294C23.4346 88.7868 19.0231 92.0246 18.8866 92.0246C17.1217 92.0246 10.7451 85.0828 9.65285 81.9727C6.81767 73.899 10.2457 66.6412 19.9112 60.2543C25.9039 56.2945 93.2357 15.8349 99.1306 12.6514C105.3 9.31986 111.465 8.03155 116.735 8.97219ZM138.516 58.193C139.525 62.0972 141.375 69.2336 142.628 74.0516C149.864 101.877 155.393 123.497 155.296 123.583C155.243 123.629 153.771 122.019 152.024 120.004C150.278 117.99 141.106 107.468 131.642 96.6233C120.623 83.9963 114.515 76.7723 114.657 76.5358C115.286 75.4909 136.54 50.5899 136.605 50.8222C136.647 50.9718 137.507 54.2888 138.516 58.193ZM86.1817 64.2344C87.3341 69.6338 89.3079 78.8092 90.5673 84.624C91.8271 90.4388 92.9266 95.6721 93.0105 96.2536C93.1503 97.2193 77.7477 115.604 71.0341 122.485L70.0497 123.494L53.5458 113.55C36.1824 103.088 27.6681 97.8969 27.0494 97.3945C26.6182 97.0447 24.305 98.832 58.835 72.8342C72.6399 62.4401 83.9689 54.0444 84.0104 54.1767C84.0518 54.309 85.029 58.8349 86.1817 64.2344ZM110.252 91.5758C110.252 91.8274 110.99 95.2595 111.893 99.203C117.464 123.532 121.355 140.655 121.532 141.619C122.02 144.283 111.893 145.079 105.243 142.898C99.964 141.167 77.4227 128.798 77.9585 127.926C78.0562 127.767 82.8931 122.166 88.7069 115.479C94.521 108.793 101.645 100.578 104.539 97.2254C109.754 91.1825 110.252 90.6907 110.252 91.5758ZM0.0174494 133.937C0.133803 181.663 -0.961187 179.118 26.3687 195.173C45.0962 206.174 63.7621 217.202 75.2252 224.038C96.6235 236.798 103.156 239.656 111.605 239.953C122.362 240.331 125.628 238.885 159.86 218.602C169.037 213.164 183.243 204.772 191.429 199.952C220.534 182.816 223.655 179.964 225.398 168.914C225.603 167.618 225.891 105.604 225.714 100.944C225.708 100.783 224.858 101.485 223.824 102.504C221.745 104.554 218.409 106.992 211.591 111.445C206.351 114.866 206.583 114.456 208.913 116.19C220.409 124.748 219.983 136.93 207.841 146.871L206.365 148.08L208.516 149.683C216.508 155.635 219.149 164.183 215.408 171.985C213.417 176.137 209.81 179.102 198.93 185.527C195.053 187.817 182.544 195.222 171.134 201.982C119.974 232.292 119.649 232.449 110.322 231.343C103.065 230.482 101.443 229.619 51.7741 200.162C47.4747 197.612 39.2894 192.782 33.5844 189.427C20.2032 181.559 16.8713 179.37 14.0599 176.604C6.06092 168.733 7.40606 157.285 17.1996 149.88C19.9067 147.833 19.898 148.131 17.3133 146.095C5.82521 137.047 5.8676 124.954 17.4194 115.99L19.1433 114.652L11.8858 109.787C7.54676 106.879 3.7564 104.091 2.46027 102.854C1.26788 101.716 0.211971 100.785 0.114258 100.785C0.0165447 100.785 -0.0270476 115.703 0.0174494 133.937ZM32.1455 125.716C27.9724 127.245 23.072 131.125 22.4686 133.377C21.2591 137.889 21.0949 137.772 64.7023 163.758C69.6631 166.715 74.4862 169.592 75.4203 170.153C113.571 193.064 112.623 193.218 178.623 153.358C207.999 135.616 208.875 134.413 197.407 127.572C190.773 123.616 191.947 123.204 167.133 138.19C110.013 172.689 115.952 173.002 48.5231 131.925C37.4878 125.203 35.5507 124.468 32.1455 125.716ZM31.4642 159.184C21.0206 163.501 19.5017 169.055 27.344 174.252C33.1187 178.079 71.1721 200.842 83.7623 208.001C109.602 222.693 116.624 222.607 143.474 207.273C157.272 199.392 192.986 177.97 199.347 173.759C205.235 169.861 205.158 165.911 199.114 161.816C191.237 156.479 192.106 156.245 169.781 169.721C110.412 205.559 115.596 205.59 55.032 169.035C36.2672 157.709 35.6529 157.453 31.4642 159.184Z" fill="#5CCEFF"/>
<path d="M331.012 96.035C340.721 96.035 349.016 99.6168 355.896 106.78C362.777 113.944 366.218 122.757 366.218 133.22C366.218 143.682 362.777 152.495 355.896 159.659C349.016 166.823 340.721 170.404 331.012 170.404C320.267 170.404 312.019 166.398 306.27 158.386V168.566H291V69.5957H306.27V107.911C312.114 99.9938 320.361 96.035 331.012 96.035ZM312.632 149.479C316.874 153.721 322.199 155.841 328.609 155.841C335.018 155.841 340.344 153.721 344.586 149.479C348.827 145.143 350.948 139.723 350.948 133.22C350.948 126.716 348.827 121.343 344.586 117.102C340.344 112.766 335.018 110.598 328.609 110.598C322.199 110.598 316.874 112.766 312.632 117.102C308.391 121.343 306.27 126.716 306.27 133.22C306.27 139.629 308.391 145.049 312.632 149.479Z" fill="#5CCEFF"/>
<path d="M436.046 107.911V97.873H451.316V168.566H436.046V158.386C430.296 166.398 422.049 170.404 411.303 170.404C401.595 170.404 393.3 166.823 386.419 159.659C379.539 152.495 376.098 143.682 376.098 133.22C376.098 122.757 379.539 113.944 386.419 106.78C393.3 99.6168 401.595 96.035 411.303 96.035C422.049 96.035 430.296 99.9938 436.046 107.911ZM397.73 149.479C401.972 153.721 407.297 155.841 413.707 155.841C420.116 155.841 425.442 153.721 429.684 149.479C433.925 145.143 436.046 139.723 436.046 133.22C436.046 126.716 433.925 121.343 429.684 117.102C425.442 112.766 420.116 110.598 413.707 110.598C407.297 110.598 401.972 112.766 397.73 117.102C393.489 121.343 391.368 126.716 391.368 133.22C391.368 139.629 393.489 145.049 397.73 149.479Z" fill="#5CCEFF"/>
<path d="M482.414 117.384C482.414 119.552 483.545 121.343 485.807 122.757C488.07 124.077 491.369 125.349 495.704 126.574C499.003 127.329 501.878 128.13 504.329 128.978C506.78 129.826 509.372 131.099 512.105 132.795C514.839 134.398 516.912 136.566 518.326 139.299C519.834 141.938 520.541 145.049 520.447 148.631C520.447 155.417 517.808 160.743 512.529 164.607C507.251 168.472 500.7 170.404 492.877 170.404C485.902 170.404 479.916 168.943 474.921 166.021C469.925 163.099 466.296 159.046 464.034 153.862L477.183 146.227C479.539 153.014 484.771 156.407 492.877 156.407C500.889 156.407 504.895 153.768 504.895 148.489C504.895 144.625 500.417 141.609 491.463 139.441C488.07 138.592 485.195 137.744 482.838 136.896C480.576 136.047 478.031 134.822 475.203 133.22C472.47 131.617 470.349 129.496 468.841 126.857C467.427 124.218 466.767 121.155 466.862 117.667C466.862 111.163 469.312 105.932 474.214 101.973C479.209 98.0144 485.383 96.035 492.735 96.035C498.579 96.035 503.764 97.3546 508.288 99.9938C512.906 102.539 516.441 106.121 518.892 110.739L506.026 117.95C503.669 112.577 499.239 109.891 492.735 109.891C489.719 109.891 487.221 110.551 485.242 111.87C483.357 113.19 482.414 115.028 482.414 117.384Z" fill="#5CCEFF"/>
<path d="M600.365 139.723H544.093C545.224 145.002 547.769 149.102 551.728 152.024C555.781 154.946 560.776 156.407 566.715 156.407C574.727 156.407 580.806 153.485 584.954 147.641L597.537 154.993C590.656 165.267 580.335 170.404 566.573 170.404C555.168 170.404 545.884 166.917 538.72 159.942C531.651 152.872 528.116 143.965 528.116 133.22C528.116 122.757 531.604 113.944 538.579 106.78C545.46 99.6168 554.414 96.035 565.442 96.035C575.716 96.035 584.2 99.6639 590.892 106.922C597.584 114.18 600.93 122.993 600.93 133.361C600.93 135.246 600.742 137.367 600.365 139.723ZM543.951 127.281H585.519C584.482 121.72 582.126 117.431 578.45 114.415C574.868 111.399 570.485 109.891 565.301 109.891C559.645 109.891 554.933 111.446 551.162 114.557C547.392 117.667 544.988 121.909 543.951 127.281Z" fill="#5CCEFF"/>
<path d="M673.759 159.659C666.595 166.823 657.782 170.404 647.319 170.404C636.857 170.404 628.044 166.823 620.88 159.659C613.622 152.401 609.993 143.588 609.993 133.22C609.993 122.851 613.622 114.038 620.88 106.78C628.044 99.6168 636.857 96.035 647.319 96.035C657.782 96.035 666.595 99.6168 673.759 106.78C681.017 114.038 684.645 122.851 684.645 133.22C684.645 143.588 681.017 152.401 673.759 159.659ZM625.263 133.22C625.263 139.629 627.384 144.955 631.625 149.196C635.867 153.438 641.098 155.559 647.319 155.559C653.54 155.559 658.772 153.438 663.013 149.196C667.255 144.955 669.376 139.629 669.376 133.22C669.376 126.81 667.255 121.485 663.013 117.243C658.772 113.001 653.54 110.881 647.319 110.881C641.098 110.881 635.867 113.001 631.625 117.243C627.384 121.485 625.263 126.81 625.263 133.22Z" fill="#5CCEFF"/>
<path d="M746.1 135.765V97.873H761.37V168.566H746.1V159.518C741.387 166.775 734.082 170.404 724.185 170.404C715.985 170.404 709.387 167.812 704.391 162.628C699.49 157.35 697.039 150.233 697.039 141.279V97.873H712.309V139.723C712.309 145.002 713.722 149.055 716.55 151.883C719.378 154.71 723.242 156.124 728.144 156.124C733.705 156.124 738.088 154.428 741.293 151.034C744.498 147.547 746.1 142.457 746.1 135.765Z" fill="#5CCEFF"/>
<path d="M818.672 97.873V112.577H801.14V146.51C801.14 149.432 801.8 151.553 803.12 152.872C804.439 154.098 806.372 154.805 808.917 154.993C811.556 155.087 814.808 155.04 818.672 154.852V168.566C806.984 169.98 798.595 168.99 793.505 165.597C788.415 162.11 785.87 155.747 785.87 146.51V112.577H772.863V97.873H785.87V82.6033L801.14 78.0789V97.873H818.672Z" fill="#5CCEFF"/>
</g>
<defs>
<clipPath id="clip0_146_3266">
<rect width="818.672" height="240" fill="white"/>
</clipPath>
</defs>

</svg>