<svg width="792" height="702" viewBox="-132 -132 792 702" fill="none" xmlns="http://www.w3.org/2000/svg">

<g clip-path="url(#clip0_146_3275)">
<path d="M40.0124 362.935C49.7209 362.935 58.0156 366.517 64.8964 373.681C71.7772 380.844 75.2176 389.657 75.2176 400.12C75.2176 410.583 71.7772 419.396 64.8964 426.559C58.0156 433.723 49.7209 437.305 40.0124 437.305C29.267 437.305 21.0195 433.299 15.2697 425.287V435.467H0V336.496H15.2697V374.812C21.1137 366.894 29.3613 362.935 40.0124 362.935ZM21.6321 416.379C25.8737 420.621 31.1993 422.742 37.6088 422.742C44.0183 422.742 49.3439 420.621 53.5855 416.379C57.8271 412.044 59.9479 406.624 59.9479 400.12C59.9479 393.616 57.8271 388.244 53.5855 384.002C49.3439 379.666 44.0183 377.498 37.6088 377.498C31.1993 377.498 25.8737 379.666 21.6321 384.002C17.3905 388.244 15.2697 393.616 15.2697 400.12C15.2697 406.53 17.3905 411.949 21.6321 416.379Z" fill="#5CCEFF"/>
<path d="M145.046 374.812V364.773H160.316V435.467H145.046V425.287C139.296 433.299 131.049 437.305 120.303 437.305C110.595 437.305 102.3 433.723 95.4193 426.559C88.5385 419.396 85.0981 410.583 85.0981 400.12C85.0981 389.657 88.5385 380.844 95.4193 373.681C102.3 366.517 110.595 362.935 120.303 362.935C131.049 362.935 139.296 366.894 145.046 374.812ZM106.73 416.379C110.972 420.621 116.297 422.742 122.707 422.742C129.116 422.742 134.442 420.621 138.684 416.379C142.925 412.044 145.046 406.624 145.046 400.12C145.046 393.616 142.925 388.244 138.684 384.002C134.442 379.666 129.116 377.498 122.707 377.498C116.297 377.498 110.972 379.666 106.73 384.002C102.489 388.244 100.368 393.616 100.368 400.12C100.368 406.53 102.489 411.949 106.73 416.379Z" fill="#5CCEFF"/>
<path d="M191.414 384.285C191.414 386.453 192.545 388.244 194.807 389.657C197.07 390.977 200.369 392.25 204.704 393.475C208.003 394.229 210.878 395.03 213.329 395.878C215.78 396.727 218.372 397.999 221.105 399.696C223.839 401.298 225.912 403.466 227.326 406.2C228.834 408.839 229.541 411.949 229.447 415.531C229.447 422.318 226.808 427.643 221.529 431.508C216.251 435.372 209.7 437.305 201.877 437.305C194.902 437.305 188.916 435.844 183.921 432.922C178.925 430 175.296 425.947 173.034 420.762L186.183 413.128C188.539 419.914 193.771 423.307 201.877 423.307C209.889 423.307 213.895 420.668 213.895 415.39C213.895 411.525 209.417 408.509 200.463 406.341C197.07 405.493 194.195 404.644 191.838 403.796C189.576 402.948 187.031 401.722 184.203 400.12C181.47 398.518 179.349 396.397 177.841 393.758C176.427 391.118 175.767 388.055 175.862 384.568C175.862 378.064 178.312 372.832 183.214 368.874C188.209 364.915 194.383 362.935 201.735 362.935C207.579 362.935 212.764 364.255 217.288 366.894C221.906 369.439 225.441 373.021 227.892 377.64L215.026 384.85C212.669 379.478 208.239 376.791 201.735 376.791C198.719 376.791 196.221 377.451 194.242 378.771C192.357 380.09 191.414 381.928 191.414 384.285Z" fill="#5CCEFF"/>
<path d="M309.365 406.624H253.093C254.224 411.902 256.769 416.002 260.728 418.924C264.781 421.846 269.777 423.307 275.715 423.307C283.727 423.307 289.806 420.385 293.954 414.541L306.537 421.894C299.656 432.168 289.335 437.305 275.573 437.305C264.168 437.305 254.884 433.817 247.72 426.842C240.651 419.773 237.116 410.865 237.116 400.12C237.116 389.657 240.604 380.844 247.579 373.681C254.46 366.517 263.414 362.935 274.442 362.935C284.716 362.935 293.2 366.564 299.892 373.822C306.584 381.08 309.93 389.893 309.93 400.261C309.93 402.147 309.742 404.267 309.365 406.624ZM252.952 394.182H294.519C293.482 388.621 291.126 384.332 287.45 381.316C283.868 378.299 279.485 376.791 274.301 376.791C268.645 376.791 263.933 378.346 260.162 381.457C256.392 384.568 253.988 388.809 252.952 394.182Z" fill="#5CCEFF"/>
<path d="M382.759 426.559C375.595 433.723 366.782 437.305 356.319 437.305C345.857 437.305 337.044 433.723 329.88 426.559C322.622 419.301 318.993 410.488 318.993 400.12C318.993 389.752 322.622 380.939 329.88 373.681C337.044 366.517 345.857 362.935 356.319 362.935C366.782 362.935 375.595 366.517 382.759 373.681C390.017 380.939 393.645 389.752 393.645 400.12C393.645 410.488 390.017 419.301 382.759 426.559ZM334.263 400.12C334.263 406.53 336.384 411.855 340.625 416.097C344.867 420.338 350.098 422.459 356.319 422.459C362.54 422.459 367.772 420.338 372.013 416.097C376.255 411.855 378.376 406.53 378.376 400.12C378.376 393.711 376.255 388.385 372.013 384.143C367.772 379.902 362.54 377.781 356.319 377.781C350.098 377.781 344.867 379.902 340.625 384.143C336.384 388.385 334.263 393.711 334.263 400.12Z" fill="#5CCEFF"/>
<path d="M455.1 402.665V364.773H470.37V435.467H455.1V426.418C450.387 433.676 443.082 437.305 433.185 437.305C424.985 437.305 418.387 434.713 413.391 429.528C408.49 424.25 406.039 417.134 406.039 408.179V364.773H421.309V406.624C421.309 411.902 422.722 415.955 425.55 418.783C428.378 421.611 432.242 423.025 437.144 423.025C442.705 423.025 447.088 421.328 450.293 417.935C453.498 414.447 455.1 409.357 455.1 402.665Z" fill="#5CCEFF"/>
<path d="M527.672 364.773V379.478H510.14V413.41C510.14 416.332 510.8 418.453 512.12 419.773C513.439 420.998 515.371 421.705 517.916 421.894C520.556 421.988 523.808 421.941 527.672 421.752V435.467C515.984 436.881 507.595 435.891 502.505 432.498C497.415 429.01 494.87 422.648 494.87 413.41V379.478H481.863V364.773H494.87V349.504L510.14 344.979V364.773H527.672Z" fill="#5CCEFF"/>
<path fill-rule="evenodd" clip-rule="evenodd" d="M254.521 0.646434C245.19 2.2266 243.548 3.10426 194.364 32.7928C176.437 43.6135 158.502 54.4143 154.507 56.7941C127.659 72.7889 121.307 80.1564 121.285 95.323C121.262 111.27 125.919 116.053 164.208 139.404C262.839 199.557 258.366 198.353 298.159 175.474C318.098 164.01 377.451 127.619 385.145 122.14C400.413 111.269 405.113 95.7614 397.529 81.2786C392.793 72.2342 390.9 70.8633 344.665 42.9957C326.431 32.0059 308.831 21.3798 305.553 19.3826C276.084 1.42733 267.822 -1.60585 254.521 0.646434ZM265.721 11.1405C271.121 12.1066 276.319 14.4028 285.625 19.9324C312.632 35.9812 373.38 72.7672 377.817 75.7587C393.175 86.1143 394.548 101.425 381.061 111.93C377.346 114.824 378.186 114.969 372.135 110.378C331.967 79.8995 293.274 50.9599 291.917 50.3808C288.1 48.7523 287.904 48.9094 275.632 63.4144C270.383 69.6184 264.108 77.0133 261.687 79.8481L257.286 85.0015L254.587 81.7234C253.103 79.9201 248.051 73.6347 243.362 67.7555C232.098 53.636 232.392 53.98 231.019 53.3236C229.383 52.5416 227.194 52.6099 225.765 53.4872C224.123 54.4953 203.49 69.9695 156.638 105.33C150.127 110.244 144.661 114.264 144.492 114.264C142.306 114.264 134.405 105.644 133.052 101.783C129.539 91.758 133.787 82.7462 145.762 74.8158C153.186 69.899 236.606 19.6616 243.909 15.7088C251.553 11.5722 259.191 9.9725 265.721 11.1405ZM292.705 72.2563C293.955 77.1041 296.248 85.965 297.8 91.9474C306.764 126.497 313.615 153.343 313.495 153.449C313.429 153.507 311.605 151.507 309.441 149.005C307.278 146.504 295.914 133.44 284.189 119.974C270.537 104.295 262.97 95.3256 263.146 95.0319C263.925 93.7346 290.257 62.8158 290.338 63.1043C290.39 63.2899 291.455 67.4086 292.705 72.2563ZM227.867 79.7577C229.294 86.462 231.74 97.8547 233.3 105.075C234.861 112.295 236.223 118.793 236.327 119.515C236.5 120.714 217.417 143.542 209.1 152.086L207.88 153.339L187.433 140.992C165.921 128.001 155.372 121.555 154.605 120.932C154.071 120.497 151.205 122.716 193.986 90.4359C211.089 77.5298 225.125 67.1051 225.176 67.2694C225.228 67.4337 226.438 73.0533 227.867 79.7577ZM257.688 113.707C257.688 114.019 258.603 118.281 259.722 123.177C266.623 153.385 271.444 174.647 271.663 175.843C272.269 179.152 259.721 180.139 251.483 177.432C244.942 175.282 217.015 159.924 217.678 158.842C217.8 158.644 223.792 151.69 230.995 143.387C238.198 135.084 247.025 124.885 250.61 120.721C257.072 113.218 257.688 112.608 257.688 113.707ZM121.114 166.305C121.259 225.565 119.902 222.405 153.762 242.34C176.964 256 200.09 269.693 214.292 278.181C240.803 294.025 248.896 297.573 259.364 297.942C272.691 298.411 276.738 296.616 319.149 271.431C330.519 264.679 348.12 254.258 358.261 248.274C394.321 226.996 398.188 223.456 400.347 209.734C400.6 208.126 400.958 131.125 400.739 125.339C400.731 125.139 399.678 126.01 398.397 127.276C395.822 129.821 391.688 132.848 383.241 138.377C376.748 142.626 377.036 142.116 379.923 144.269C394.165 154.895 393.638 170.022 378.595 182.365L376.766 183.866L379.431 185.856C389.332 193.247 392.605 203.86 387.97 213.548C385.503 218.704 381.034 222.385 367.555 230.363C362.751 233.207 347.254 242.401 333.118 250.794C269.734 288.429 269.33 288.624 257.775 287.251C248.784 286.182 246.775 285.11 185.238 248.535C179.911 245.369 169.77 239.371 162.702 235.205C146.123 225.436 141.995 222.718 138.512 219.283C128.602 209.51 130.268 195.296 142.402 186.101C145.756 183.559 145.745 183.929 142.543 181.401C128.31 170.167 128.362 155.152 142.674 144.021L144.81 142.36L135.819 136.319C130.443 132.708 125.747 129.246 124.141 127.71C122.664 126.297 121.355 125.141 121.234 125.141C121.113 125.141 121.059 143.664 121.114 166.305ZM160.919 156.098C155.749 157.997 149.678 162.813 148.93 165.61C147.431 171.213 147.228 171.066 201.255 203.333C207.401 207.004 213.377 210.577 214.534 211.274C261.801 239.721 260.626 239.912 342.396 190.419C378.79 168.39 379.876 166.896 365.668 158.402C357.449 153.489 358.903 152.978 328.161 171.586C257.391 214.422 264.75 214.811 181.21 163.807C167.538 155.46 165.138 154.548 160.919 156.098ZM160.075 197.654C147.136 203.013 145.254 209.91 154.97 216.363C162.125 221.115 209.271 249.379 224.869 258.268C256.882 276.51 265.583 276.404 298.848 257.364C315.943 247.579 360.19 220.98 368.072 215.751C375.366 210.91 375.27 206.006 367.782 200.921C358.024 194.294 359.1 194.004 331.441 210.737C257.887 255.236 264.309 255.275 189.274 209.886C166.026 195.822 165.265 195.504 160.075 197.654Z" fill="#5CCEFF"/>
</g>
<defs>
<clipPath id="clip0_146_3275">
<rect width="527.672" height="437.305" fill="white"/>
</clipPath>
</defs>

</svg>