<svg width="448" height="476" viewBox="0 0 448 476" fill="none" xmlns="http://www.w3.org/2000/svg">
<g clip-path="url(#clip0_146_3261)">
<path fill-rule="evenodd" clip-rule="evenodd" d="M213.486 1.03256C198.556 3.55658 195.928 4.95848 117.234 52.3804C88.5515 69.6645 59.8546 86.9168 53.4627 90.7181C10.5067 116.267 0.342116 128.035 0.307549 152.261C0.270597 177.734 7.72225 185.373 68.984 222.673C226.794 318.756 219.636 316.832 283.305 280.287C315.208 261.975 410.174 203.847 422.484 195.097C446.912 177.732 454.432 152.961 442.298 129.828C434.721 115.381 431.691 113.191 357.715 68.6778C328.542 51.1235 300.381 34.1503 295.136 30.9601C247.985 2.27989 234.766 -2.56505 213.486 1.03256ZM231.405 17.7948C240.045 19.3381 248.362 23.0058 263.251 31.8384C306.462 57.4734 403.66 116.232 410.758 121.011C435.331 137.552 437.528 162.007 415.949 178.787C410.006 183.409 411.35 183.642 401.668 176.309C337.399 127.625 275.49 81.3991 273.319 80.4741C267.212 77.8728 266.897 78.1238 247.262 101.293C238.865 111.203 228.824 123.015 224.951 127.543L217.909 135.774L213.591 130.538C211.216 127.658 203.134 117.618 195.63 108.227C177.609 85.6737 178.079 86.2231 175.882 85.1746C173.264 83.9255 169.762 84.0346 167.475 85.4359C164.848 87.0462 131.835 111.763 56.8717 168.245C46.4544 176.094 37.7095 182.516 37.4389 182.516C33.9404 182.516 21.3001 168.748 19.1349 162.579C13.5147 146.566 20.3102 132.172 39.47 119.504C51.3493 111.651 184.821 31.4058 196.507 25.0919C208.736 18.4844 220.957 15.9292 231.405 17.7948ZM274.58 115.416C276.58 123.16 280.248 137.313 282.731 146.869C297.075 202.056 308.035 244.937 307.843 245.106C307.738 245.198 304.819 242.005 301.358 238.009C297.896 234.013 279.714 213.145 260.954 191.636C239.111 166.593 227.003 152.265 227.285 151.796C228.532 149.724 270.663 100.337 270.792 100.797C270.875 101.094 272.579 107.673 274.58 115.416ZM170.838 127.398C173.122 138.107 177.035 156.305 179.532 167.838C182.029 179.37 184.208 189.75 184.375 190.903C184.652 192.818 154.119 229.281 140.811 242.929L138.86 244.931L106.144 225.208C71.7244 204.458 54.8466 194.162 53.62 193.166C52.7654 192.472 48.1798 196.017 116.629 144.455C143.994 123.839 166.452 107.188 166.534 107.45C166.616 107.713 168.553 116.689 170.838 127.398ZM218.552 181.625C218.552 182.124 220.016 188.931 221.806 196.753C232.849 245.004 240.562 278.966 240.913 280.877C241.881 286.162 221.805 287.739 208.624 283.415C198.159 279.98 153.475 255.448 154.537 253.72C154.731 253.405 164.319 242.296 175.844 229.034C187.369 215.772 201.492 199.48 207.228 192.83C217.566 180.845 218.552 179.87 218.552 181.625ZM0.03459 265.641C0.265238 360.298 -1.90536 355.251 52.2707 387.093C89.3943 408.913 126.396 430.785 149.119 444.342C191.537 469.65 204.486 475.318 221.234 475.907C242.558 476.656 249.032 473.789 316.89 433.561C335.083 422.776 363.243 406.131 379.469 396.572C437.165 362.585 443.352 356.929 446.807 335.012C447.212 332.443 447.784 209.448 447.434 200.206C447.422 199.887 445.736 201.278 443.687 203.3C439.566 207.364 432.953 212.2 419.437 221.032C409.049 227.818 409.509 227.004 414.128 230.444C436.916 247.417 436.073 271.579 412.004 291.295L409.077 293.693L413.341 296.87C429.183 308.676 434.42 325.629 427.003 341.103C423.056 349.339 415.906 355.219 394.34 367.962C386.653 372.505 361.857 387.19 339.24 400.598C237.825 460.712 237.18 461.024 218.692 458.83C204.305 457.124 201.091 455.411 102.632 396.988C94.1091 391.931 77.8833 382.35 66.5744 375.697C40.0487 360.092 33.444 355.751 27.8709 350.264C12.0146 334.653 14.681 311.949 34.0948 297.262C39.4611 293.201 39.4438 293.792 34.3201 289.755C11.5473 271.81 11.6313 247.826 34.5305 230.047L37.9479 227.393L23.5613 217.745C14.9599 211.977 7.44631 206.447 4.877 203.993C2.51331 201.736 0.42019 199.89 0.226493 199.89C0.0327966 199.89 -0.0536165 229.477 0.03459 265.641ZM63.722 249.337C55.4497 252.37 45.7357 260.064 44.5395 264.531C42.1418 273.481 41.8164 273.247 128.259 324.787C138.093 330.651 147.654 336.358 149.506 337.471C225.133 382.91 223.253 383.216 354.085 304.16C412.316 268.973 414.054 266.586 391.32 253.018C378.17 245.171 380.497 244.354 331.309 274.077C218.078 342.499 229.852 343.121 96.1874 261.652C74.3122 248.319 70.4722 246.862 63.722 249.337ZM62.3715 315.715C41.6692 324.276 38.6583 335.293 54.2041 345.601C65.6512 353.191 141.084 398.337 166.042 412.535C217.263 441.674 231.184 441.504 284.409 411.091C311.761 395.462 382.556 352.974 395.167 344.622C406.837 336.89 406.684 329.057 394.703 320.934C379.089 310.35 380.811 309.885 336.558 336.613C218.871 407.693 229.145 407.754 109.09 335.254C71.8924 312.79 70.6748 312.281 62.3715 315.715Z" fill="#5CCEFF"/>
</g>
<defs>
<clipPath id="clip0_146_3261">
<rect width="448" height="476" fill="white"/>
</clipPath>
</defs>
</svg>
